Coordinates
version=1
nRows=19
nColumns=33
inDegrees=yes

Units are S.I. units (second, meters, Newtons, ...)
Angles are in degrees.

endheader
time	ground_thorax_rot_x	ground_thorax_rot_y	ground_thorax_rot_z	ground_thorax_tx	ground_thorax_ty	ground_thorax_tz	clav_prot_r	clav_elev_r	scapula_abduction_r	scapula_elevation_r	scapula_upward_rot_r	scapula_winging_r	shoulder_elv_r	plane_of_elev_r	axial_rot_r	elbow_flexion_r	pro_sup_r	wrist_flex_r	wrist_dev_r	clav_prot_l	clav_elev_l	scapula_abduction_l	scapula_elevation_l	scapula_upward_rot_l	scapula_winging_l	shoulder_elv_l	plane_of_elev_l	axial_rot_l	elbow_flexion_l	pro_sup_l	wrist_flex_l	wrist_dev_l	
11.9600	-24.948794	-32.827450	46.199827	-62.298891	834.607449	-44.009524	28.114536	-45.000000	41.294184	-45.000000	-45.000000	974.180590	2956.113842	21.754294	-151.700987	2158.496836	-198.819085	14.075862	15.614757	-1.263309	32.647559	-31.101819	-45.000000	-45.000000	3687.930101	-3521.564828	27.560055	53.296453	1788.299667	36.973672	15.596541	-16.967758	
11.9700	-24.699411	-33.005778	46.579749	-60.435022	833.534953	-43.853225	28.143351	-45.000000	41.284734	-45.000000	-45.000000	974.276598	2956.032627	21.731722	-151.689817	2158.536020	-198.730389	13.946267	15.636746	-1.256621	32.617751	-31.039104	-45.000000	-45.000000	3687.858525	-3521.609869	27.558274	53.336901	1788.300696	37.074316	15.577225	-16.844113	
11.9800	-24.469492	-33.160990	46.931161	-58.573064	832.443291	-43.692941	28.170289	-45.000000	41.261908	-45.000000	-45.000000	974.368854	2955.948740	21.712410	-151.659548	2158.570930	-198.638963	13.823434	15.657392	-1.246000	32.589272	-30.998283	-45.000000	-45.000000	3687.791513	-3521.668579	27.562272	53.379336	1788.295516	37.184341	15.557070	-16.727143	
11.9900	-24.253189	-33.297310	47.255916	-56.716546	831.337159	-43.531430	28.189697	-45.000000	41.238264	-45.000000	-45.000000	974.455482	2955.858996	21.697364	-151.611988	2158.602140	-198.537184	13.707437	15.677922	-1.237762	32.561293	-30.971414	-45.000000	-45.000000	3687.726865	-3521.741014	27.569028	53.425117	1788.282936	37.302036	15.542382	-16.620298	
12.0000	-24.040746	-33.422174	47.574766	-54.869127	830.220843	-43.370596	28.207887	-45.000000	41.214119	-45.000000	-45.000000	974.538370	2955.771297	21.675890	-151.553849	2158.630282	-198.419972	13.598490	15.693100	-1.229628	32.531933	-30.943441	-45.000000	-45.000000	3687.655322	-3521.812538	27.577578	53.473235	1788.262683	37.426908	15.525736	-16.512621	
12.0100	-23.824669	-33.543763	47.896151	-53.034232	829.097990	-43.211440	28.222985	-45.000000	41.188771	-45.000000	-45.000000	974.618010	2955.685209	21.652917	-151.484256	2158.660985	-198.284407	13.495419	15.700037	-1.225755	32.500095	-30.900913	-45.000000	-45.000000	3687.575146	-3521.877844	27.585051	53.520348	1788.239677	37.555411	15.508138	-16.406133	
12.0200	-23.597031	-33.671438	48.235152	-51.215210	827.971712	-43.054236	28.241844	-45.000000	41.162748	-45.000000	-45.000000	974.696227	2955.603677	21.624097	-151.403322	2158.694647	-198.130370	13.396509	15.696781	-1.229020	32.464048	-30.835652	-45.000000	-45.000000	3687.485234	-3521.928995	27.585565	53.564759	1788.220538	37.684323	15.482826	-16.296259	
12.0300	-23.358513	-33.803969	48.586881	-49.415183	826.844495	-42.898877	28.259456	-45.000000	41.140709	-45.000000	-45.000000	974.773528	2955.525399	21.590299	-151.308860	2158.731375	-197.960533	13.300877	15.684200	-1.239129	32.425324	-30.751995	-45.000000	-45.000000	3687.386849	-3521.973159	27.575569	53.602274	1788.207995	37.810018	15.450695	-16.186558	
12.0400	-23.113569	-33.936876	48.950808	-47.637221	825.718270	-42.745209	28.279692	-45.000000	41.117524	-45.000000	-45.000000	974.846461	2955.452058	21.551151	-151.202193	2158.769411	-197.779935	13.208164	15.663620	-1.254970	32.384099	-30.655350	-45.000000	-45.000000	3687.280555	-3522.008819	27.560386	53.634432	1788.197408	37.930872	15.410871	-16.075305	
12.0500	-22.869833	-34.065037	49.315651	-45.884200	824.594263	-42.593263	28.295898	-45.000000	41.088962	-45.000000	-45.000000	974.918297	2955.383552	21.507141	-151.086356	2158.806854	-197.594256	13.118080	15.636985	-1.267681	32.342914	-30.554643	-45.000000	-45.000000	3687.169284	-3522.041821	27.541971	53.661559	1788.187466	38.044704	15.364406	-15.964367	
12.0600	-22.632605	-34.188142	49.672567	-44.158694	823.472825	-42.443282	28.312638	-45.000000	41.056090	-45.000000	-45.000000	974.986129	2955.314431	21.465290	-150.960116	2158.845097	-197.408349	13.030194	15.608233	-1.282297	32.301016	-30.450875	-45.000000	-45.000000	3687.059481	-3522.074179	27.526108	53.693405	1788.177737	38.149097	15.315183	-15.859284	
12.0700	-22.405426	-34.302823	50.014780	-42.462868	822.353269	-42.295592	28.329050	-45.000000	41.022321	-45.000000	-45.000000	975.053574	2955.244048	21.419326	-150.827856	2158.882123	-197.226596	12.944287	15.579937	-1.294761	32.259648	-30.348652	-45.000000	-45.000000	3686.950726	-3522.109536	27.512276	53.734172	1788.169151	38.242889	15.262567	-15.760543	
12.0800	-22.193850	-34.408630	50.335033	-40.798411	821.233799	-42.150404	28.349193	-45.000000	40.985042	-45.000000	-45.000000	975.115435	2955.167260	21.379935	-150.688064	2158.920822	-197.052852	12.860758	15.553926	-1.308783	32.217712	-30.248915	-45.000000	-45.000000	3686.849015	-3522.149538	27.505677	53.788678	1788.161461	38.325075	15.211304	-15.672804	
12.0900	-21.994159	-34.504684	50.636375	-39.166576	820.111684	-42.007645	28.370083	-45.000000	40.951615	-45.000000	-45.000000	975.178018	2955.088474	21.333381	-150.546987	2158.956308	-196.890501	12.779459	15.531638	-1.319483	32.175742	-30.152957	-45.000000	-45.000000	3686.748437	-3522.194979	27.500381	53.855381	1788.153439	38.396894	15.158795	-15.590881	
12.1000	-21.808560	-34.590789	50.916323	-37.568139	818.983596	-41.866961	28.395689	-45.000000	40.916122	-45.000000	-45.000000	975.233012	2955.004034	21.292986	-150.401475	2158.991912	-196.743344	12.701423	15.510827	-1.331652	32.132096	-30.059175	-45.000000	-45.000000	3686.650592	-3522.244725	27.499276	53.933216	1788.143266	38.459459	15.108697	-15.515877	
12.1100	-21.628430	-34.670340	51.187972	-36.003581	817.846213	-41.727862	28.421108	-45.000000	40.882285	-45.000000	-45.000000	975.291222	2954.923295	21.239683	-150.256064	2159.024417	-196.614852	12.624913	15.491056	-1.338635	32.087654	-29.963172	-45.000000	-45.000000	3686.547296	-3522.295578	27.494564	54.014880	1788.131551	38.515594	15.056141	-15.439581	
12.1200	-21.460449	-34.744242	51.444807	-34.473151	816.696813	-41.589966	28.452726	-45.000000	40.841687	-45.000000	-45.000000	975.337958	2954.836045	21.197297	-150.103432	2159.059176	-196.508588	12.550708	15.469480	-1.348896	32.040609	-29.865307	-45.000000	-45.000000	3686.445666	-3522.348107	27.491658	54.098358	1788.119675	38.566746	15.007297	-15.367854	
12.1300	-21.294428	-34.817590	51.698428	-32.977139	815.533837	-41.453153	28.481598	-45.000000	40.804620	-45.000000	-45.000000	975.394285	2954.755471	21.136349	-149.949652	2159.089751	-196.426240	12.476364	15.450759	-1.351648	31.993509	-29.762805	-45.000000	-45.000000	3686.341020	-3522.402710	27.481983	54.176762	1788.107351	38.616680	14.957519	-15.293837	
12.1400	-21.143434	-34.880713	51.930751	-31.515979	814.357153	-41.317588	28.516674	-45.000000	40.768095	-45.000000	-45.000000	975.432363	2954.665678	21.088944	-149.787601	2159.119562	-196.369928	12.404110	15.432882	-1.359718	31.945339	-29.667835	-45.000000	-45.000000	3686.240749	-3522.464233	27.476705	54.250254	1788.089577	38.666931	14.916886	-15.227094	
